<?xml version="1.0" standalone="no"?>
<!DOCTYPE svg PUBLIC "-//W3C//DTD SVG 20010904//EN"
 "http://www.w3.org/TR/2001/REC-SVG-20010904/DTD/svg10.dtd">
<svg version="1.0" xmlns="http://www.w3.org/2000/svg"
 width="576.000000pt" height="576.000000pt" viewBox="0 0 576.000000 576.000000"
 preserveAspectRatio="xMidYMid meet">
<metadata>
Created by potrace 1.16, written by Peter Selinger 2001-2019
</metadata>
<g transform="translate(0.000000,576.000000) scale(0.720000,-0.720000)"
fill="#000000" stroke="none">
<path d="M0 620 l0 -180 185 0 185 0 0 180 0 180 -185 0 -185 0 0 -180z"/>
<path d="M440 620 l0 -179 180 -3 180 -3 0 183 0 182 -180 0 -180 0 0 -180z"/>
<path d="M558 383 c23 -2 61 -2 85 0 23 2 4 4 -43 4 -47 0 -66 -2 -42 -4z"/>
<path d="M0 185 l0 -185 185 0 185 0 0 185 0 185 -185 0 -185 0 0 -185z"/>
<path d="M440 185 l0 -185 180 0 180 0 0 185 0 185 -180 0 -180 0 0 -185z"/>
</g>
</svg>
